Coordinates
version=1
nRows=32
nColumns=22
inDegrees=yes

Units are S.I. units (second, meters, Newtons, ...)
If the header above contains a line with 'inDegrees', this indicates whether rotational values are in degrees (yes) or radians (no).

endheader
time	pelvis_tilt	pelvis_list	pelvis_rotation	pelvis_tx	pelvis_ty	pelvis_tz	hip_flexion_r	hip_adduction_r	hip_rotation_r	knee_angle_r	ankle_angle_r	subtalar_angle_r	hip_flexion_l	hip_adduction_l	hip_rotation_l	knee_angle_l	ankle_angle_l	subtalar_angle_l	lumbar_extension	lumbar_bending	lumbar_rotation
      2.61000000	      2.95550336	     -4.28593418	    -41.26873088	     -0.39309321	      0.89938607	     -0.29266772	    -22.68104127	      7.42565264	     10.25888138	    -23.30412153	      2.92453010	      5.97309883	     26.99981480	     -1.67545175	      2.97344961	    -33.71453726	      9.22452612	     -9.24964337	    -10.12379146	      3.42311725	     -5.76161810
      2.62000000	      3.27637262	     -4.14277577	    -41.86316865	     -0.38223932	      0.90078707	     -0.28460550	    -22.15937752	      6.79102861	     10.10333803	    -25.43221048	     -0.12056444	      7.73321680	     26.32833982	     -1.35846254	      2.63339129	    -34.67223497	     10.13720753	    -10.03748267	    -10.08426998	      2.98243758	     -5.65454820
      2.63000000	      3.60556880	     -4.01984183	    -42.49796748	     -0.37180839	      0.90236342	     -0.27661511	    -21.42058389	      6.16330326	      9.89493354	    -27.80729364	     -3.23232507	      9.29727130	     25.51985628	     -1.10807353	      2.12938531	    -35.39057807	     11.15035601	    -10.64306038	    -10.11575341	      2.54206103	     -5.57309572
      2.64000000	      3.92086730	     -3.89895437	    -43.16921751	     -0.36183906	      0.90403925	     -0.26875191	    -20.42060048	      5.54355988	      9.62278910	    -30.44389654	     -6.24093366	     10.59221714	     24.62200641	     -0.91519080	      1.48050887	    -35.88245633	     12.19006151	    -11.08075290	    -10.18811908	      2.10446278	     -5.53975839
      2.65000000	      4.20583289	     -3.76377503	    -43.88010563	     -0.35233165	      0.90575563	     -0.26107906	    -19.12981582	      4.92740020	      9.30237239	    -33.34209990	     -8.96898725	     11.60225688	     23.67250430	     -0.75729094	      0.74006038	    -36.15930020	     13.19100539	    -11.38542595	    -10.27956842	      1.67697266	     -5.53522084
      2.66000000	      4.45346861	     -3.60022303	    -44.62756919	     -0.34325504	      0.90746468	     -0.25362014	    -17.54544358	      4.30845848	      8.94472256	    -36.46825446	    -11.23872545	     12.33784720	     22.70271615	     -0.61733810	     -0.07476047	    -36.24360532	     14.13847135	    -11.57252490	    -10.36768648	      1.25986954	     -5.57512489
      2.67000000	      4.66207964	     -3.42065504	    -45.40600383	     -0.33456051	      0.90917159	     -0.24638112	    -15.70937184	      3.69961300	      8.57489514	    -39.73962961	    -12.93117280	     12.85090581	     21.72046024	     -0.49426585	     -0.94284839	    -36.16392039	     15.00042486	    -11.67283964	    -10.45467070	      0.87239076	     -5.66342014
      2.68000000	      4.85807023	     -3.24697431	    -46.21346579	     -0.32620211	      0.91094621	     -0.23934332	    -13.70177862	      3.10570406	      8.23217440	    -43.05644671	    -14.00659864	     13.14990226	     20.69315397	     -0.37651627	     -1.85186530	    -35.93153207	     15.72632371	    -11.67830414	    -10.57410133	      0.51270683	     -5.78046506
      2.69000000	      4.99594858	     -3.06082574	    -47.01451575	     -0.31809594	      0.91269678	     -0.23252094	    -11.51595730	      2.56836179	      7.91555696	    -46.33116788	    -14.38249803	     13.41812588	     19.69806706	     -0.26364428	     -2.74784148	    -35.59724224	     16.39290124	    -11.71638077	    -10.65936985	      0.21239698	     -5.96723184
      2.70000000	      5.06400469	     -2.87948864	    -47.77399861	     -0.31017148	      0.91444563	     -0.22590825	     -9.20712089	      2.12401674	      7.60446658	    -49.45907967	    -14.16240041	     13.58372848	     18.74189523	     -0.16561433	     -3.58015151	    -35.18322447	     17.01319440	    -11.80304863	    -10.70649541	      0.00220110	     -6.26163555
      2.71000000	      5.15177343	     -2.75721727	    -48.51624067	     -0.30241203	      0.91640448	     -0.21942269	     -6.92904256	      1.72588790	      7.29421364	    -52.34669629	    -13.49226121	     13.55821696	     17.68364204	     -0.06641181	     -4.40996543	    -34.64809122	     17.47701701	    -11.81872136	    -10.82966750	     -0.16029212	     -6.56850857
      2.72000000	      5.18638612	     -2.66147804	    -49.17722043	     -0.29473976	      0.91842863	     -0.21310542	     -4.63736880	      1.41796303	      6.92009770	    -54.94068917	    -12.49196259	     13.33663017	     16.63581203	      0.02118321	     -5.14847481	    -34.04322602	     17.87053611	    -11.86011006	    -10.93241274	     -0.23041262	     -6.98077216
      2.73000000	      5.17645557	     -2.59908372	    -49.73708724	     -0.28710720	      0.92053627	     -0.20694346	     -2.37367232	      1.18285999	      6.42990865	    -57.19814843	    -11.34295196	     12.73707852	     15.58332944	      0.10363702	     -5.76327686	    -33.36959171	     18.24496655	    -11.93799112	    -11.02480644	     -0.21166655	     -7.47585472
      2.74000000	      5.17779636	     -2.61489056	    -50.21692578	     -0.27951554	      0.92286851	     -0.20083048	     -0.26059317	      1.00979904	      5.87284053	    -59.06472472	    -10.05822801	     12.02519608	     14.41834263	      0.16893759	     -6.33876445	    -32.58482921	     18.52259403	    -11.96738598	    -11.18112031	     -0.12879779	     -8.03382536
      2.75000000	      5.16843506	     -2.68824497	    -50.59240024	     -0.27194133	      0.92532334	     -0.19480225	      1.73171358	      0.87908944	      5.17834577	    -60.55837143	     -8.70422795	     11.24049830	     13.19941957	      0.21428696	     -6.85334138	    -31.73646372	     18.71607426	    -11.96359133	    -11.36807638	      0.01843598	     -8.63132845
      2.76000000	      5.14164147	     -2.82551990	    -50.86765460	     -0.26439620	      0.92788456	     -0.18882090	      3.58070132	      0.81710468	      4.38893491	    -61.66701621	     -7.31842137	     10.25419006	     11.91256861	      0.23299009	     -7.25940759	    -30.80522935	     18.91423813	    -11.91818098	    -11.58461521	      0.23600292	     -9.28090062
      2.77000000	      5.12033085	     -2.99867635	    -51.04158705	     -0.25683997	      0.93049714	     -0.18288385	      5.29186717	      0.75043696	      3.45550563	    -62.41296668	     -5.91167288	      9.28826361	     10.57683807	      0.24283472	     -7.63835849	    -29.81623089	     19.01033888	    -11.82814539	    -11.81806036	      0.48043640	     -9.95520340
      2.78000000	      5.07630530	     -3.22266277	    -51.13710664	     -0.24931676	      0.93311228	     -0.17695696	      6.86000948	      0.73491729	      2.43473232	    -62.79223707	     -4.50974654	      8.19948481	      9.19120139	      0.21195835	     -7.94455473	    -28.76139305	     19.13847508	    -11.67662896	    -12.06321320	      0.78223845	    -10.62034328
      2.79000000	      5.05482512	     -3.45962330	    -51.16141897	     -0.24178925	      0.93566067	     -0.17103992	      8.29521732	      0.67912406	      1.30353612	    -62.84855853	     -3.14618000	      7.16754096	      7.77157754	      0.19161518	     -8.24164255	    -27.67218308	     19.19834239	    -11.47443297	    -12.31564447	      1.07311912	    -11.28687923
      2.80000000	      5.04157666	     -3.70216338	    -51.13280659	     -0.23428484	      0.93809495	     -0.16512064	      9.61011801	      0.60874194	      0.11226434	    -62.59122143	     -1.83925914	      6.24203018	      6.32572402	      0.18366164	     -8.47066578	    -26.53187759	     19.19398964	    -11.23059322	    -12.56260823	      1.35717484	    -11.92716009
      2.81000000	      5.01059801	     -3.94961044	    -51.10003197	     -0.22687189	      0.94028534	     -0.15913826	     10.83460329	      0.55381937	     -1.10737950	    -62.05053037	     -0.60600259	      5.18069117	      4.90856697	      0.13239507	     -8.77669142	    -25.43054160	     19.30433889	    -10.90706470	    -12.78772114	      1.64564378	    -12.48435102
      2.82000000	      5.02948957	     -4.17915511	    -51.02363721	     -0.21946168	      0.94229099	     -0.15315233	     11.93603961	      0.43113353	     -2.37304130	    -61.24476778	      0.50977385	      4.38812832	      3.47141365	      0.14436677	     -9.01258091	    -24.30882534	     19.27966663	    -10.58371617	    -13.02299324	      1.87387641	    -13.05213720
      2.83000000	      5.04898773	     -4.39419673	    -50.95889068	     -0.21216637	      0.94398629	     -0.14707914	     12.95523096	      0.31675194	     -3.62231004	    -60.19399797	      1.53766785	      3.56055844	      2.07262581	      0.14927531	     -9.29100673	    -23.23801485	     19.31063155	    -10.20764735	    -13.23759858	      2.06989095	    -13.54499455
      2.84000000	      5.05493912	     -4.56826020	    -50.93409745	     -0.20498760	      0.94528498	     -0.14092178	     13.93585993	      0.21193932	     -4.82091458	    -58.92536443	      2.47982968	      2.66874681	      0.74699776	      0.16141252	     -9.60224781	    -22.23063759	     19.42162721	     -9.78610012	    -13.40174706	      2.23264324	    -13.93506590
      2.85000000	      5.11816591	     -4.72350180	    -50.88520478	     -0.19784663	      0.94630082	     -0.13471799	     14.79591168	      0.05623460	     -6.02253858	    -57.43981391	      3.25866038	      2.11319954	     -0.57964807	      0.23647318	     -9.85764133	    -21.25848349	     19.47657794	     -9.45068128	    -13.58691885	      2.32196042	    -14.36201689
      2.86000000	      5.16852582	     -4.85286748	    -50.90901982	     -0.19085482	      0.94690542	     -0.12835316	     15.60441608	     -0.05382889	     -7.12534913	    -55.75295224	      3.94780872	      1.35422101	     -1.85765679	      0.31685479	    -10.13508882	    -20.34038146	     19.63825397	     -9.03708642	    -13.73554636	      2.37973662	    -14.65227585
      2.87000000	      5.24375113	     -4.94603704	    -50.93407435	     -0.18392941	      0.94712193	     -0.12190460	     16.33724174	     -0.17911850	     -8.19197425	    -53.87653370	      4.51226123	      0.85332753	     -3.07062000	      0.43283192	    -10.42707096	    -19.52468360	     19.83503329	     -8.71476318	    -13.86485928	      2.38080829	    -14.99432058
      2.88000000	      5.32188338	     -5.01596012	    -51.00812589	     -0.17712198	      0.94694444	     -0.11530004	     17.00338010	     -0.27400522	     -9.18186344	    -51.81753804	      4.94045019	      0.37166214	     -4.23909798	      0.56758435	    -10.72583299	    -18.77495097	     20.12677309	     -8.37450306	    -13.97329595	      2.33960259	    -15.23219814
      2.89000000	      5.40973735	     -5.06516264	    -51.09865554	     -0.17038880	      0.94640367	     -0.10857800	     17.58702048	     -0.34377412	    -10.10700346	    -49.57140783	      5.23104672	      0.10871885	     -5.34967679	      0.71879765	    -11.03353620	    -18.12506414	     20.49466147	     -8.09404916	    -14.06532061	      2.26818958	    -15.49903634
      2.90000000	      5.49656821	     -5.08920093	    -51.19542893	     -0.16375432	      0.94548556	     -0.10174072	     18.10555925	     -0.38831832	    -10.99379599	    -47.15710534	      5.37842016	      0.00818997	     -6.37876164	      0.87205317	    -11.36386660	    -17.59487877	     20.97608651	     -7.86738064	    -14.13379348	      2.16313821	    -15.75165888
      2.91000000	      5.59768318	     -5.11705141	    -51.33276569	     -0.15723189	      0.94429803	     -0.09474550	     18.51695982	     -0.38020502	    -11.78959118	    -44.55992988	      5.33726966	     -0.03905534	     -7.40138870	      1.03844511	    -11.69470406	    -17.11410026	     21.49770222	     -7.63183405	    -14.21411117	      2.03372253	    -15.96401272
      2.92000000	      5.70169518	     -5.13061195	    -51.48309595	     -0.15079840	      0.94282141	     -0.08763994	     18.84729832	     -0.34213732	    -12.55161212	    -41.79880947	      5.15086454	     -0.00026152	     -8.37000591	      1.21173321	    -12.02349357	    -16.72502640	     22.06346901	     -7.41456585	    -14.28313227	      1.88046727	    -16.14856089
